# xmcd
#
# Track frame offsets: 
#        150
#        21678
#        49555
#        76603
#        97060
#        128738
#        151275
#        181833
#        204960
#        227918
#
# Disc length: 3362 seconds
#
# Revision: 0
# Processed by: cddbd v1.5.2PL0 Copyright (c) Steve Scherf et al.
# Submitted via: ExactAudioCopy v1.0b3
#
DISCID=760d200a
DTITLE=Duy Khanh - Que Huong Ta
DYEAR=1990
DGENRE=
TTITLE0=Duy Khanh, Huong Lan - Thuong qua Viet Nam
TTITLE1=Ve que ngoai
TTITLE2=Dua em ve que huong
TTITLE3=Que huong ta
TTITLE4=Tinh ca que huong
TTITLE5=Duy Khanh, Huong Lan - Ruoc tinh ve voi que huong
TTITLE6=Xin tron tuoi loan
TTITLE7=Con quoc Viet Nam
TTITLE8=Hoa binh oi Viet Nam oi
TTITLE9=Lang toi
EXTD=
EXTT0=
EXTT1=
EXTT2=
EXTT3=
EXTT4=
EXTT5=
EXTT6=
EXTT7=
EXTT8=
EXTT9=
PLAYORDER=
